<svg width="308" height="112" viewBox="0 0 308 112" fill="none" xmlns="http://www.w3.org/2000/svg">
<rect width="308" height="112" rx="3" fill="#E5FFE5"/>
<path d="M132 48C132 51 129.8 53.4 127 53.9V91H125V53.9C122.2 53.4 120 51 120 48C120 45 122.2 42.6 125 42.1V21H127V42.1C129.8 42.6 132 45 132 48ZM188 54C188 51 185.8 48.6 183 48.1V21H181V48.1C178.2 48.6 176 51 176 54C176 57 178.2 59.4 181 59.9V91H183V59.9C185.8 59.4 188 57 188 54ZM169 72.1V21H167V72.1C164.2 72.6 162 75 162 78C162 81 164.2 83.4 167 83.9V91H169V83.9C171.8 83.4 174 81 174 78C174 75 171.8 72.6 169 72.1ZM146 63C146 66 143.8 68.4 141 68.9V91H139V68.9C136.2 68.4 134 66 134 63C134 60 136.2 57.6 139 57.1V21H141V57.1C143.8 57.6 146 60 146 63ZM144 63C144 60.8 142.2 59 140 59C137.8 59 136 60.8 136 63C136 65.2 137.8 67 140 67C142.2 67 144 65.2 144 63ZM160 34C160 37 157.8 39.4 155 39.9V91H153V39.9C150.2 39.4 148 37 148 34C148 31 150.3 28.5 153.2 28.1H153V21H155V28.1H154.8C157.7 28.5 160 31 160 34ZM158 34C158 31.8 156.2 30 154 30C151.8 30 150 31.8 150 34C150 36.2 151.8 38 154 38C156.2 38 158 36.2 158 34Z" fill="#188618"/>
</svg>
