<svg width="308" height="112" viewBox="0 0 308 112" fill="none" xmlns="http://www.w3.org/2000/svg">
<rect width="308" height="112" rx="3" fill="#FFF3E5"/>
<path d="M131.2 40.8C134.348 40.8 136.9 38.2481 136.9 35.1C136.9 31.952 134.348 29.4 131.2 29.4C128.052 29.4 125.5 31.952 125.5 35.1C125.5 38.2481 128.052 40.8 131.2 40.8Z" fill="#F96702"/>
<path fill-rule="evenodd" clip-rule="evenodd" d="M138.8 35.1C138.8 38.2481 141.352 40.8 144.5 40.8C147.648 40.8 150.2 38.2481 150.2 35.1C150.2 31.952 147.648 29.4 144.5 29.4C141.352 29.4 138.8 31.952 138.8 35.1ZM148.3 35.1C148.3 37.1987 146.598 38.9 144.5 38.9C142.401 38.9 140.7 37.1987 140.7 35.1C140.7 33.0014 142.401 31.3 144.5 31.3C146.598 31.3 148.3 33.0014 148.3 35.1Z" fill="#F96702"/>
<path d="M163.5 35.1C163.5 38.2481 160.948 40.8 157.8 40.8C154.652 40.8 152.1 38.2481 152.1 35.1C152.1 31.952 154.652 29.4 157.8 29.4C160.948 29.4 163.5 31.952 163.5 35.1Z" fill="#F96702"/>
<path fill-rule="evenodd" clip-rule="evenodd" d="M134.839 48.4C134.447 50.7184 133.345 52.8758 131.66 54.5603C129.522 56.6981 126.623 57.899 123.6 57.899L123.6 59.8C127.127 59.8 130.51 58.3988 133.004 55.9046C135.046 53.8626 136.356 51.2249 136.763 48.4H169.2V21.8H119.8V48.4H134.839ZM167.3 23.7H121.7V46.5H167.3V23.7Z" fill="#F96702"/>
<path d="M150.2 71.2C153.348 71.2 155.9 68.6481 155.9 65.5C155.9 62.352 153.348 59.8 150.2 59.8C147.052 59.8 144.5 62.352 144.5 65.5C144.5 68.6481 147.052 71.2 150.2 71.2Z" fill="#F96702"/>
<path fill-rule="evenodd" clip-rule="evenodd" d="M163.5 71.2C160.352 71.2 157.8 68.6481 157.8 65.5C157.8 62.352 160.352 59.8 163.5 59.8C166.648 59.8 169.2 62.352 169.2 65.5C169.2 68.6481 166.648 71.2 163.5 71.2ZM163.5 69.3C165.598 69.3 167.3 67.5987 167.3 65.5C167.3 63.4014 165.598 61.7 163.5 61.7C161.401 61.7 159.7 63.4014 159.7 65.5C159.7 67.5987 161.401 69.3 163.5 69.3Z" fill="#F96702"/>
<path d="M176.8 71.2C179.948 71.2 182.5 68.6481 182.5 65.5C182.5 62.352 179.948 59.8 176.8 59.8C173.652 59.8 171.1 62.352 171.1 65.5C171.1 68.6481 173.652 71.2 176.8 71.2Z" fill="#F96702"/>
<path fill-rule="evenodd" clip-rule="evenodd" d="M176.895 86.3046C179.39 88.7988 182.772 90.2 186.3 90.2V88.299C183.277 88.299 180.377 87.0981 178.24 84.9603C176.555 83.2758 175.452 81.1184 175.06 78.8H188.2V52.2H138.8V78.8H173.136C173.544 81.6249 174.853 84.2626 176.895 86.3046ZM140.7 54.1H186.3V76.9H140.7V54.1Z" fill="#F96702"/>
</svg>
