<svg width="308" height="112" viewBox="0 0 308 112" fill="none" xmlns="http://www.w3.org/2000/svg">
<rect width="308" height="112" rx="3" fill="#EDF7FF"/>
<path fill-rule="evenodd" clip-rule="evenodd" d="M155 25H153V36.083C151.752 36.2924 150.634 36.8874 149.774 37.7413L149.757 37.7574L149.741 37.7735C148.665 38.858 148 40.3514 148 42C148 43.6421 148.66 45.1301 149.728 46.2135L149.757 46.2426L149.787 46.2716C150.645 47.1186 151.758 47.7087 153 47.917V50.083C151.758 50.2913 150.645 50.8814 149.787 51.7284L149.757 51.7574L149.728 51.7865C148.66 52.8699 148 54.3579 148 56C148 57.6421 148.66 59.1301 149.728 60.2135L149.757 60.2426L149.787 60.2716C150.645 61.1186 151.758 61.7087 153 61.917V64.083C151.758 64.2913 150.645 64.8814 149.787 65.7284L149.757 65.7574L149.728 65.7865C148.66 66.8699 148 68.3579 148 70C148 71.6421 148.66 73.1301 149.728 74.2135L149.757 74.2426L149.787 74.2716C150.645 75.1186 151.758 75.7087 153 75.917V87H155V75.917C157.838 75.441 160 72.973 160 70C160 67.027 157.838 64.559 155 64.083V61.917C157.838 61.441 160 58.973 160 56C160 53.027 157.838 50.559 155 50.083V47.917C157.838 47.441 160 44.973 160 42C160 39.027 157.838 36.559 155 36.083V25ZM155 45.874V38.126C156.725 38.5701 158 40.1362 158 42C158 43.8638 156.725 45.4299 155 45.874ZM155 59.874V52.126C156.725 52.5701 158 54.1362 158 56C158 57.8638 156.725 59.4299 155 59.874ZM155 73.874V66.126C156.725 66.5701 158 68.1362 158 70C158 71.8638 156.725 73.4299 155 73.874Z" fill="#005BA6"/>
<path d="M132 42C132 45.3137 129.314 48 126 48C122.686 48 120 45.3137 120 42C120 38.6863 122.686 36 126 36C129.314 36 132 38.6863 132 42Z" fill="#005BA6"/>
<path d="M132 56C132 59.3137 129.314 62 126 62C122.686 62 120 59.3137 120 56C120 52.6863 122.686 50 126 50C129.314 50 132 52.6863 132 56Z" fill="#005BA6"/>
<path d="M140 48C143.314 48 146 45.3137 146 42C146 38.6863 143.314 36 140 36C136.686 36 134 38.6863 134 42C134 45.3137 136.686 48 140 48Z" fill="#005BA6"/>
<path d="M146 56C146 59.3137 143.314 62 140 62C136.686 62 134 59.3137 134 56C134 52.6863 136.686 50 140 50C143.314 50 146 52.6863 146 56Z" fill="#005BA6"/>
<path d="M132 70C132 73.3137 129.314 76 126 76C122.686 76 120 73.3137 120 70C120 66.6863 122.686 64 126 64C129.314 64 132 66.6863 132 70Z" fill="#005BA6"/>
<path d="M140 76C143.314 76 146 73.3137 146 70C146 66.6863 143.314 64 140 64C136.686 64 134 66.6863 134 70C134 73.3137 136.686 76 140 76Z" fill="#005BA6"/>
<path fill-rule="evenodd" clip-rule="evenodd" d="M174 42C174 45.3137 171.314 48 168 48C164.686 48 162 45.3137 162 42C162 38.6863 164.686 36 168 36C171.314 36 174 38.6863 174 42ZM172 42C172 44.2091 170.209 46 168 46C165.791 46 164 44.2091 164 42C164 39.7909 165.791 38 168 38C170.209 38 172 39.7909 172 42Z" fill="#005BA6"/>
<path fill-rule="evenodd" clip-rule="evenodd" d="M174 56C174 59.3137 171.314 62 168 62C164.686 62 162 59.3137 162 56C162 52.6863 164.686 50 168 50C171.314 50 174 52.6863 174 56ZM172 56C172 58.2091 170.209 60 168 60C165.791 60 164 58.2091 164 56C164 53.7909 165.791 52 168 52C170.209 52 172 53.7909 172 56Z" fill="#005BA6"/>
<path fill-rule="evenodd" clip-rule="evenodd" d="M174 70C174 73.3137 171.314 76 168 76C164.686 76 162 73.3137 162 70C162 66.6863 164.686 64 168 64C171.314 64 174 66.6863 174 70ZM172 70C172 72.2091 170.209 74 168 74C165.791 74 164 72.2091 164 70C164 67.7909 165.791 66 168 66C170.209 66 172 67.7909 172 70Z" fill="#005BA6"/>
<path fill-rule="evenodd" clip-rule="evenodd" d="M182 48C185.314 48 188 45.3137 188 42C188 38.6863 185.314 36 182 36C178.686 36 176 38.6863 176 42C176 45.3137 178.686 48 182 48ZM182 46C184.209 46 186 44.2091 186 42C186 39.7909 184.209 38 182 38C179.791 38 178 39.7909 178 42C178 44.2091 179.791 46 182 46Z" fill="#005BA6"/>
<path fill-rule="evenodd" clip-rule="evenodd" d="M188 56C188 59.3137 185.314 62 182 62C178.686 62 176 59.3137 176 56C176 52.6863 178.686 50 182 50C185.314 50 188 52.6863 188 56ZM186 56C186 58.2091 184.209 60 182 60C179.791 60 178 58.2091 178 56C178 53.7909 179.791 52 182 52C184.209 52 186 53.7909 186 56Z" fill="#005BA6"/>
<path fill-rule="evenodd" clip-rule="evenodd" d="M182 76C185.314 76 188 73.3137 188 70C188 66.6863 185.314 64 182 64C178.686 64 176 66.6863 176 70C176 73.3137 178.686 76 182 76ZM182 74C184.209 74 186 72.2091 186 70C186 67.7909 184.209 66 182 66C179.791 66 178 67.7909 178 70C178 72.2091 179.791 74 182 74Z" fill="#005BA6"/>
</svg>
